PathFileType  4	(X/Y/Z) C:\Users\antoi\Documents\MyRepositories\mobilecap\ResultsAnalysis
DataRate	CameraRate	NumFrames	NumMarkers	Units	OrigDataRate	OrigDataStartFrame	OrigNumFrames
100.0	100.0	7	51	mm	100.0	74	146
Frame#	Time	r_knee			r_shank_antsup			r_ankle			r_calc			r_5meta			r_toe			L_knee			L_shank_antsup			L_ankle			L_calc			L_5meta			L_toe			r_sh2			r_sh3			r_sh4			L_sh2			L_sh3			r_thigh1			r_thigh2			r_thigh3			r_thigh4			r_thigh5			L_thigh1			L_thigh2			L_thigh3			L_thigh4			r.ASIS			r.PSIS			L.ASIS			L.PSIS			C7			R_Shoulder			L_Shoulder			R_Sternum			L_Sternum			R_humerus			R_elbow_med			R_elbow_lat			R_forearm			R_wrist_radius			R_wrist_ulna			L_humerus			L_elbow_med			L_elbow_lat			L_forearm			L_wrist_radius			L_wrist_ulna			R_HJC			L_HJC			R_HJC_reg			L_HJC_reg			
		X1	Y1	Z1	X2	Y2	Z2	X3	Y3	Z3	X4	Y4	Z4	X5	Y5	Z5	X6	Y6	Z6	X7	Y7	Z7	X8	Y8	Z8	X9	Y9	Z9	X10	Y10	Z10	X11	Y11	Z11	X12	Y12	Z12	X13	Y13	Z13	X14	Y14	Z14	X15	Y15	Z15	X16	Y16	Z16	X17	Y17	Z17	X18	Y18	Z18	X19	Y19	Z19	X20	Y20	Z20	X21	Y21	Z21	X22	Y22	Z22	X23	Y23	Z23	X24	Y24	Z24	X25	Y25	Z25	X26	Y26	Z26	X27	Y27	Z27	X28	Y28	Z28	X29	Y29	Z29	X30	Y30	Z30	X31	Y31	Z31	X32	Y32	Z32	X33	Y33	Z33	X34	Y34	Z34	X35	Y35	Z35	X36	Y36	Z36	X37	Y37	Z37	X38	Y38	Z38	X39	Y39	Z39	X40	Y40	Z40	X41	Y41	Z41	X42	Y42	Z42	X43	Y43	Z43	X44	Y44	Z44	X45	Y45	Z45	X46	Y46	Z46	X47	Y47	Z47	X48	Y48	Z48	X49	Y49	Z49	X50	Y50	Z50	X51	Y51	Z51	

74	0.73000000	660.67514	506.70483	-46.50701	619.09755	431.88378	-35.46936	305.06754	250.96813	-93.10248	237.64200	278.68806	-145.43661	322.19486	84.83252	-84.75189	373.28388	89.06583	-134.61284	858.59349	537.62195	-340.29176	902.70947	421.80328	-347.23110	866.32216	95.58821	-322.72793	793.42276	54.97698	-292.05907	1023.78228	32.51256	-344.36950	1039.57905	60.66818	-276.97443	527.47270	364.65523	-39.85061	571.74369	494.85396	-25.85635	475.19334	432.42364	-38.19793	813.10277	424.43108	-367.85666	821.60186	304.33375	-364.21376	741.94530	818.21414	-20.10539	755.26484	709.72683	-26.51977	696.30148	678.42328	-10.29790	629.42385	805.16527	-30.86557	646.24384	692.33782	-29.55392	823.87021	862.14067	-371.66606	874.06675	732.98962	-364.18098	716.29107	816.98325	-381.90881	773.87046	688.88035	-374.37838	777.08105	1017.41005	-69.46022	593.22597	1073.75251	-155.18176	795.87699	1028.01331	-325.78113	595.98134	1074.39474	-259.07139	659.72941	1556.34551	-344.01831	704.00382	1589.27971	-180.54006	720.32488	1484.65066	-476.37840	809.92838	1494.42919	-282.74281	811.65709	1471.89302	-336.60595	622.57461	1386.42636	-1.56156	583.94769	1274.33322	-41.27925	585.53379	1310.87329	35.77819	659.08242	1185.24891	109.02364	709.14111	1087.80731	143.98835	665.00395	1087.86392	152.86009	608.36493	1241.72877	-507.20042	547.49524	1185.36696	-425.10320	552.24504	1173.37552	-493.13874	534.14804	1000.59406	-498.66895	531.56838	902.40821	-485.95497	491.60237	912.22652	-487.78635	689.28285	944.71725	-83.45296	706.08315	953.63105	-313.03850	703.56807	954.35550	-108.02717	708.06914	955.40800	-277.73073	
75	0.74000000	684.24408	508.57328	-45.96587	641.60821	435.03878	-34.99894	323.22782	262.17370	-93.61611	257.80670	291.64474	-147.32562	334.27046	95.06679	-83.41486	387.38140	95.92306	-131.60809	863.94112	537.75463	-340.97601	906.65855	421.37283	-347.85071	866.45889	95.59892	-322.73324	793.43117	55.06762	-292.06774	1023.80726	32.43142	-344.46542	1039.49955	60.36577	-276.93278	548.25712	370.04618	-39.61382	595.63410	499.03602	-25.83556	497.59371	438.93382	-38.26075	817.11289	424.99747	-368.40205	824.18730	304.84310	-364.74461	756.75351	820.88624	-20.22049	772.61583	712.65083	-26.09834	714.26870	680.20182	-9.65338	644.58739	805.13784	-31.16488	664.50910	692.80748	-29.26606	833.42157	862.63918	-372.66013	881.84253	733.02557	-365.15363	725.23591	819.01624	-382.67168	781.12431	690.13891	-375.12135	788.06941	1019.49347	-70.44437	604.27551	1075.83710	-156.14310	806.94321	1029.90631	-326.81169	607.06196	1076.72709	-259.87783	671.63429	1558.54634	-344.83717	715.78408	1591.41251	-181.20910	732.53033	1486.67458	-476.91125	821.64199	1496.42370	-283.24841	823.49383	1473.89038	-337.06779	634.02415	1388.70084	-2.18874	594.68506	1276.84973	-41.94689	596.90001	1313.17037	35.09347	670.12641	1187.02591	107.69992	719.87857	1089.14591	142.12740	675.82871	1089.45905	151.25169	623.47741	1242.54350	-509.03751	562.67765	1185.08872	-427.53129	568.11804	1173.40646	-495.60850	552.67431	1000.32956	-501.59346	551.56783	902.08895	-489.01470	511.36410	911.45941	-491.21095	700.23140	946.82963	-84.38808	716.99784	955.69998	-313.97659	714.62167	956.04029	-109.20951	719.18044	957.49834	-278.93894	
76	0.75000000	707.56971	511.00532	-45.55538	664.06504	438.64525	-34.68373	342.34564	272.58873	-94.61717	278.55969	302.78789	-149.85509	348.88078	105.27920	-81.43118	403.31864	102.80391	-128.36410	868.89823	537.87663	-341.64652	910.33659	420.98895	-348.45650	866.62612	95.60801	-322.82113	793.43651	55.18228	-292.11026	1023.85043	32.32456	-344.56870	1039.42643	60.07665	-276.92743	569.25923	375.59545	-39.56077	619.23276	503.49424	-26.15050	519.92191	445.40580	-38.69998	820.92956	425.51496	-369.19156	826.71647	305.31580	-365.50249	771.42077	823.88291	-20.47609	789.86141	715.95687	-25.84308	732.24016	682.35211	-9.04852	659.71850	805.40865	-31.42836	682.63420	693.43204	-29.17335	842.79900	863.34760	-373.05867	889.49942	733.21155	-365.67246	734.09991	821.09440	-383.59353	788.38259	691.56205	-376.03051	798.98285	1021.76045	-71.41505	615.18373	1078.03434	-157.05467	817.88693	1031.80825	-327.88042	617.92757	1079.07251	-260.66491	683.35967	1560.90609	-345.44440	727.37536	1593.56875	-181.63082	744.52190	1488.91171	-477.26846	833.15611	1498.51203	-283.59111	835.10047	1476.01418	-337.37650	645.31170	1390.89868	-2.66622	605.31542	1279.28610	-42.39972	608.11511	1315.37505	34.54802	681.09024	1188.68124	106.40596	730.60521	1090.34456	140.20709	686.64449	1090.89119	149.62033	638.62945	1243.53981	-510.88394	577.92632	1184.82314	-430.03625	584.11873	1173.52143	-498.13116	571.67529	1000.13612	-504.65453	572.29694	901.84847	-492.23135	531.78859	910.75610	-494.77151	711.10777	949.10654	-85.23739	727.75723	957.77308	-314.84107	725.61933	957.90336	-110.26678	730.11454	959.60485	-280.05301	
77	0.76000000	730.55163	513.91167	-45.27798	686.42400	442.56086	-34.51735	362.45287	281.89696	-96.00836	299.82408	311.90449	-152.81606	366.01948	115.01430	-78.85920	421.17281	109.48918	-124.93992	873.47203	537.98207	-342.31022	913.71471	420.64450	-349.07377	866.80953	95.61869	-322.96385	793.44074	55.32357	-292.17633	1023.91876	32.19845	-344.67663	1039.37824	59.79701	-276.95431	590.50339	381.04055	-39.68669	642.44897	508.06240	-26.72619	542.12245	451.56530	-39.46364	824.46838	425.98664	-370.09962	829.09789	305.74879	-366.35720	785.92552	827.16574	-20.84975	806.97134	719.60809	-25.72685	750.19782	684.82004	-8.48855	674.79137	805.96689	-31.67956	700.48885	694.16614	-29.28912	851.98236	864.17591	-373.07740	897.00501	733.46525	-365.92036	742.77208	823.13379	-384.61211	795.59906	693.08209	-377.07321	809.84734	1024.20382	-72.38477	625.96958	1080.34100	-157.90557	828.70103	1033.67604	-328.97782	628.60626	1081.42329	-261.44401	694.89942	1563.40020	-345.84594	738.77698	1595.73939	-181.82967	756.28950	1491.35110	-477.46642	844.47899	1500.69684	-283.79179	846.48914	1478.26959	-337.56235	656.43319	1393.00913	-3.02936	615.86799	1281.63553	-42.72762	619.18448	1317.47130	34.10401	691.97393	1190.20978	105.12683	741.30128	1091.41454	138.24104	697.42567	1092.16329	147.96311	653.81407	1244.70195	-512.74228	593.24801	1184.56507	-432.62432	600.24288	1173.71693	-500.70201	591.13947	1000.03572	-507.84436	593.71523	901.72038	-495.59775	552.88901	910.14430	-498.48216	721.92483	951.54814	-85.98914	738.35871	959.81971	-315.62148	736.56585	959.93174	-111.21194	740.89004	961.70654	-281.06976	
78	0.77000000	753.11525	517.19158	-45.13702	708.66690	446.63777	-34.50791	383.52608	289.83679	-97.65965	321.55346	318.91251	-155.96819	385.52064	123.85616	-75.86268	440.92220	115.70721	-121.44376	877.65624	538.06870	-342.96641	916.74464	420.33237	-349.71627	866.98561	95.63351	-323.12543	793.44596	55.48663	-292.25622	1024.01279	32.06859	-344.78189	1039.35826	59.53059	-277.00430	612.01543	386.13626	-39.99479	665.22638	512.57046	-27.49655	564.18749	457.14845	-40.49346	827.62775	426.41822	-370.97505	831.22333	306.14339	-367.16982	800.25866	830.68155	-21.30669	823.92082	723.55304	-25.73057	768.11987	687.54042	-7.99418	689.77912	806.78592	-31.94229	718.00118	695.02232	-29.57157	860.93347	865.00415	-372.97184	904.28510	733.69011	-366.08918	751.13600	825.08288	-385.63735	802.66981	694.62165	-378.18333	820.65836	1026.79155	-73.35946	636.64123	1082.73706	-158.70289	839.35613	1035.46433	-330.08119	639.13705	1083.76997	-262.23209	706.24726	1565.99978	-346.05471	749.99061	1597.90923	-181.83195	767.82400	1493.97354	-477.51935	855.62154	1502.97038	-283.86697	857.68149	1480.65144	-337.64849	667.39307	1395.01708	-3.30922	626.34471	1283.88924	-43.02856	630.11809	1319.44313	33.72692	702.78128	1191.60731	103.85069	751.94682	1092.36804	136.24329	708.14957	1093.28441	146.27773	669.01873	1246.00621	-514.61817	608.66589	1184.30371	-435.30030	616.48905	1173.98750	-503.32584	611.05928	1000.04865	-511.15177	615.77641	901.74760	-499.11076	574.66871	909.63679	-502.33404	732.66548	954.13262	-86.64203	748.79266	961.80708	-316.31508	747.42756	962.08426	-112.07687	751.52299	963.77893	-282.00070	
79	0.78000000	775.21607	520.74720	-45.13444	730.78658	450.74643	-34.67027	405.48042	296.21573	-99.43865	343.70755	323.82335	-159.08938	407.12297	131.46794	-72.66466	462.46702	121.17454	-118.01508	881.44618	538.13794	-343.60849	919.39510	420.04816	-350.38128	867.13398	95.65307	-323.27228	793.45530	55.65794	-292.34073	1024.12540	31.95053	-344.87692	1039.35814	59.28359	-277.06612	633.79840	390.70124	-40.48583	687.53854	516.87671	-28.41203	586.13504	461.95366	-41.72776	830.34167	426.81752	-371.69433	833.01470	306.50623	-367.83333	814.42121	834.37411	-21.81040	840.68435	727.73858	-25.84310	785.96625	690.46018	-7.59638	704.65822	807.83350	-32.23244	735.18019	696.07633	-29.93209	869.60822	865.71568	-372.98031	911.25638	733.80392	-366.33932	759.12920	826.94369	-386.57827	809.46148	696.11285	-379.27509	831.39492	1029.47060	-74.34145	647.20319	1085.18735	-159.46125	849.81543	1037.14247	-331.16936	649.56015	1086.09994	-263.03955	717.40022	1568.66923	-346.09074	761.01925	1600.05713	-181.66324	779.11979	1496.74957	-477.44057	866.59559	1505.31268	-283.82921	868.69975	1483.13989	-337.64909	678.20105	1396.90256	-3.52926	636.73155	1286.03018	-43.37849	640.92682	1321.27259	33.38719	713.51573	1192.86763	102.57160	762.52914	1093.21237	134.22770	718.80427	1094.26342	144.56400	684.23013	1247.42306	-516.52004	624.21426	1184.02613	-438.06241	632.85864	1174.32651	-506.01206	631.42809	1000.19386	-514.56178	638.42511	901.98268	-502.77562	597.12661	909.22746	-506.29913	743.30331	956.81614	-87.20829	759.04958	963.71131	-316.93083	758.15696	964.30255	-112.90236	762.02434	965.80025	-282.87046	
80	0.79000000	796.84415	524.48888	-45.27655	752.77363	454.78860	-35.01660	428.18495	300.91660	-101.23339	366.23649	326.69328	-162.01013	430.54595	137.61242	-69.49075	485.67787	125.65449	-114.79331	884.85105	538.19270	-344.22700	921.67783	419.79137	-351.05026	867.24505	95.67689	-323.38204	793.47264	55.81660	-292.41872	1024.24347	31.85421	-344.95708	1039.36466	59.06141	-277.12947	655.82395	394.63611	-41.15196	709.38136	520.88533	-29.43993	607.98106	465.87254	-43.10376	832.61443	427.19239	-372.19780	834.45473	306.84773	-368.29749	828.42209	838.19462	-22.33121	857.23388	732.11747	-26.05943	803.67183	693.55047	-7.32666	719.41198	809.07933	-32.55033	752.09628	697.42772	-30.26925	877.96894	866.21964	-373.28197	917.85604	733.75571	-366.77724	766.77289	828.76760	-387.36734	815.84478	697.50993	-380.26112	842.03689	1032.17624	-75.33118	657.66264	1087.64643	-160.19325	860.05305	1038.70007	-332.23464	659.90575	1088.39691	-263.86188	728.35886	1571.36770	-345.97681	771.86678	1602.15756	-181.34650	790.17705	1499.64061	-477.24354	877.41286	1507.69269	-283.68838	879.56121	1485.70048	-337.57071	688.86886	1398.64198	-3.70468	647.00977	1288.03806	-43.80683	651.61978	1322.93865	33.06092	724.17628	1193.98072	101.28939	773.04487	1093.94623	132.20704	729.39076	1095.10325	142.82401	699.44308	1248.92279	-518.45674	639.92695	1183.72321	-440.89831	649.35544	1174.72623	-508.76520	652.23892	1000.49152	-518.05477	661.59764	902.48378	-506.60583	620.25534	908.89219	-510.33908	753.82184	959.53913	-87.71086	769.12654	965.52123	-317.48791	768.72071	966.52191	-113.72419	772.39900	967.75351	-283.71003	
